<?xml version="1.0" standalone="no"?>
<!DOCTYPE svg PUBLIC "-//W3C//DTD SVG 20010904//EN"
 "http://www.w3.org/TR/2001/REC-SVG-20010904/DTD/svg10.dtd">
<svg version="1.0" xmlns="http://www.w3.org/2000/svg"
 width="1080.000000pt" height="1080.000000pt" viewBox="0 0 1080.000000 1080.000000"
 preserveAspectRatio="xMidYMid meet">
<metadata>
Created by potrace 1.14, written by Peter Selinger 2001-2017
</metadata>
<g transform="translate(0.000000,1080.000000) scale(0.100000,-0.100000)"
fill="#000000" stroke="none">
<path d="M2692 7084 c54 -61 62 -188 23 -338 -82 -315 -305 -711 -788 -1399
-140 -201 -158 -231 -149 -251 34 -75 214 -218 233 -185 4 8 45 66 91 129 554
761 816 1271 819 1599 2 166 -48 289 -160 398 -50 49 -102 84 -69 47z"/>
<path d="M2950 6886 c0 -8 4 -17 9 -20 8 -5 14 -26 28 -101 12 -57 5 -210 -11
-285 -10 -41 -19 -85 -22 -97 -8 -40 -65 -193 -105 -286 -122 -277 -366 -671
-658 -1062 -117 -157 -119 -160 -94 -167 38 -10 135 -20 245 -23 l97 -3 77
106 c75 104 254 372 308 462 15 25 41 68 58 95 33 53 195 369 216 421 142 353
153 582 36 781 -47 81 -184 214 -184 179z"/>
<path d="M3638 6430 c-109 -34 -218 -126 -260 -220 -73 -161 -42 -354 74 -467
62 -61 213 -124 388 -163 67 -15 98 -30 129 -64 20 -21 23 -32 18 -66 -11 -82
-63 -123 -157 -123 -67 0 -115 23 -184 88 -126 119 -178 124 -270 28 -80 -83
-82 -129 -7 -223 48 -60 60 -72 112 -107 106 -73 218 -104 359 -99 253 10 432
143 480 358 21 95 -1 272 -41 322 -47 60 -78 90 -108 105 -47 24 -173 69 -214
77 -18 3 -36 7 -42 8 -5 1 -37 8 -70 15 -116 25 -169 67 -169 131 1 62 43 97
126 107 54 6 108 -12 153 -51 54 -47 110 -62 157 -43 58 24 138 136 138 193 0
33 -85 121 -148 153 -115 59 -344 79 -464 41z"/>
<path d="M7888 6436 c-79 -23 -135 -55 -192 -112 -93 -91 -133 -198 -123 -328
11 -150 81 -257 209 -319 77 -37 217 -84 277 -93 53 -8 130 -44 146 -68 19
-27 19 -80 -1 -121 -20 -43 -70 -66 -142 -68 -68 -1 -106 17 -176 83 -101 94
-158 118 -212 87 -65 -38 -125 -115 -126 -164 -3 -104 199 -276 363 -308 72
-14 206 -14 270 1 140 32 263 114 322 215 62 105 76 265 36 388 -43 131 -135
193 -363 247 -61 15 -127 31 -147 35 -120 29 -161 140 -76 201 25 18 46 23 98
23 57 0 71 -4 108 -30 83 -58 123 -76 161 -69 63 11 160 129 160 194 0 63
-107 152 -229 191 -84 27 -290 36 -363 15z"/>
<path d="M4541 6419 c-40 -8 -68 -34 -79 -74 -5 -17 -8 -298 -8 -625 1 -653 0
-640 61 -669 35 -17 128 -23 181 -11 21 5 49 20 63 35 l26 25 5 367 5 367 55
-74 c221 -303 242 -329 284 -350 53 -25 96 -25 146 0 43 22 79 65 229 275 57
80 107 145 110 145 3 0 6 -161 6 -358 0 -327 2 -361 18 -386 25 -37 59 -49
148 -52 95 -2 130 13 154 67 17 36 18 85 18 627 0 419 -3 597 -12 623 -16 50
-58 72 -144 74 -41 2 -87 -3 -111 -12 -45 -16 -36 -4 -321 -381 -92 -122 -169
-221 -171 -220 -1 2 -29 39 -63 83 -33 44 -69 91 -80 105 -11 14 -53 70 -95
125 -41 55 -79 105 -83 110 -5 6 -35 45 -68 88 -54 70 -65 79 -112 93 -52 15
-100 16 -162 3z"/>
<path d="M6705 6415 c-16 -7 -40 -22 -52 -32 -20 -16 -85 -140 -183 -348 -48
-101 -172 -357 -285 -590 -111 -226 -126 -269 -113 -307 18 -50 124 -115 200
-122 67 -6 87 15 164 173 l67 139 265 0 264 -1 65 -134 c76 -156 102 -184 167
-178 53 4 132 43 173 85 49 50 42 82 -72 315 -53 110 -119 245 -145 300 -195
408 -304 625 -326 654 -45 57 -124 76 -189 46z m125 -673 c34 -68 60 -126 57
-128 -2 -3 -58 -3 -124 -2 l-119 3 60 127 c33 70 61 126 62 125 1 -1 30 -58
64 -125z"/>
<path d="M1737 5014 c-8 -9 21 -142 45 -201 78 -192 297 -333 573 -369 28 -3
52 -8 55 -9 12 -7 200 -18 305 -19 101 0 288 10 360 18 17 2 64 7 105 11 41 4
84 9 94 11 37 7 353 18 526 18 162 0 280 -6 355 -19 30 -5 96 -17 105 -20 3 0
23 -4 45 -9 66 -13 212 -64 278 -97 165 -84 321 -215 445 -373 12 -16 22 -26
22 -23 0 21 -88 263 -117 320 -162 324 -449 517 -848 572 -223 30 -565 23
-950 -20 -45 -5 -115 -12 -225 -20 -41 -4 -85 -8 -98 -10 -37 -6 -290 -18
-377 -18 -82 0 -255 12 -266 19 -4 2 -24 6 -45 10 -66 10 -200 67 -256 108
-29 21 -69 58 -89 82 -20 23 -39 41 -42 38z"/>
<path d="M5708 4679 c-114 -31 -169 -150 -118 -253 45 -93 170 -128 256 -71
29 19 31 46 5 69 -17 16 -21 16 -54 0 -68 -32 -139 9 -139 81 0 76 72 116 142
80 28 -14 31 -14 50 5 12 12 20 29 18 38 -7 37 -102 68 -160 51z"/>
<path d="M6024 4674 c-81 -28 -126 -87 -126 -168 0 -122 122 -208 239 -169 54
18 66 33 54 65 -12 33 -37 42 -64 23 -61 -43 -157 19 -143 92 8 39 24 60 57
73 27 12 39 11 75 -2 50 -18 72 -9 76 31 6 48 -94 81 -168 55z"/>
<path d="M6347 4676 c-159 -58 -163 -275 -7 -339 58 -24 142 -6 181 39 59 67
65 173 15 238 -47 62 -122 86 -189 62z m87 -86 c31 -11 58 -61 52 -94 -16 -86
-90 -114 -148 -56 -27 28 -30 36 -25 73 4 28 14 49 32 64 28 25 50 28 89 13z"/>
<path d="M7309 4678 c-21 -8 -25 -38 -7 -56 7 -7 35 -12 64 -12 l52 0 1 -130
c0 -72 3 -135 6 -140 8 -13 62 -13 70 0 3 5 6 68 7 140 l1 130 58 0 c55 0 59
2 65 26 4 14 2 30 -4 36 -12 12 -283 17 -313 6z"/>
<path d="M8244 4675 c-51 -18 -72 -34 -95 -71 -54 -88 -18 -212 76 -262 55
-28 176 -11 201 29 8 14 9 157 1 165 -9 10 -130 5 -140 -5 -5 -5 -7 -19 -5
-32 2 -19 10 -25 36 -27 26 -3 32 -8 32 -27 0 -44 -64 -48 -109 -6 -25 23 -31
37 -31 69 0 56 25 83 82 89 28 3 48 1 52 -6 12 -18 54 -13 66 8 18 34 11 48
-35 70 -47 22 -83 24 -131 6z"/>
<path d="M5342 4668 c-16 -22 -142 -286 -142 -301 0 -20 21 -37 47 -37 16 0
28 11 42 38 l20 39 61 -1 c53 -2 64 -5 81 -26 10 -14 19 -30 19 -36 0 -28 65
-19 76 10 3 8 -28 85 -70 170 -66 138 -78 156 -99 156 -14 0 -29 -6 -35 -12z
m48 -157 c16 -31 12 -39 -16 -33 -17 3 -23 9 -20 19 3 8 6 19 6 24 0 16 19 10
30 -10z"/>
<path d="M6612 4663 c-15 -31 -5 -208 13 -247 20 -42 68 -85 96 -87 10 -1 29
-2 42 -3 52 -5 116 38 139 94 12 29 18 233 8 250 -4 6 -22 10 -41 8 l-34 -3
-5 -110 c-3 -60 -9 -118 -14 -128 -19 -41 -98 -29 -116 17 -5 13 -9 65 -9 115
0 51 -3 96 -6 102 -11 16 -64 10 -73 -8z"/>
<path d="M6964 4668 c-10 -16 -11 -293 -2 -318 4 -12 17 -20 30 -20 45 0 50
12 49 104 -1 47 1 86 3 86 2 0 37 -43 77 -95 61 -80 76 -95 100 -95 15 0 31 5
35 12 11 18 12 300 2 321 -7 13 -18 17 -41 15 l-32 -3 -3 -92 c-3 -85 -12
-114 -25 -79 -3 7 -33 50 -67 95 -52 69 -65 81 -90 81 -16 0 -32 -5 -36 -12z"/>
<path d="M7662 4663 c-10 -22 -9 -304 2 -321 9 -14 62 -16 71 -3 8 13 8 318 0
331 -10 17 -63 12 -73 -7z"/>
<path d="M7793 4673 c-10 -3 -13 -45 -13 -158 0 -84 3 -160 6 -169 7 -19 57
-21 72 -3 5 6 9 45 8 85 -1 89 5 102 29 65 54 -82 127 -163 148 -163 43 0 47
15 47 182 l0 158 -27 6 c-48 12 -58 -4 -58 -95 -1 -46 -5 -80 -10 -79 -6 1
-37 38 -70 82 -32 45 -64 84 -70 88 -11 9 -43 9 -62 1z"/>
<path d="M1794 4609 c12 -97 28 -153 64 -229 80 -170 253 -278 513 -319 35 -6
82 -13 104 -17 22 -4 346 -8 720 -9 374 -1 689 -4 700 -7 11 -3 56 -9 99 -13
43 -4 86 -8 95 -10 9 -1 36 -6 61 -10 93 -14 298 -69 380 -102 220 -89 378
-202 533 -382 l46 -55 -14 55 c-8 30 -17 65 -20 79 -10 57 -49 161 -96 255
-49 101 -141 225 -209 281 -19 16 -37 31 -40 34 -41 49 -288 164 -391 184 -13
2 -44 9 -69 15 -47 11 -82 16 -190 28 -83 10 -523 10 -660 0 -58 -4 -148 -10
-200 -13 -52 -3 -111 -8 -130 -11 -73 -9 -608 -11 -670 -2 -123 17 -135 20
-200 36 -87 21 -205 72 -266 113 -27 19 -75 61 -108 93 l-58 60 6 -54z"/>
<path d="M8471 4402 c-20 -38 -1 -72 39 -72 32 0 41 9 45 46 4 41 -64 62 -84
26z"/>
</g>
</svg>
